Coordinates
version=1
nRows=21
nColumns=33
inDegrees=yes

Units are S.I. units (second, meters, Newtons, ...)
Angles are in degrees.

endheader
time	ground_thorax_rot_x	ground_thorax_rot_y	ground_thorax_rot_z	ground_thorax_tx	ground_thorax_ty	ground_thorax_tz	clav_prot_r	clav_elev_r	scapula_abduction_r	scapula_elevation_r	scapula_upward_rot_r	scapula_winging_r	shoulder_elv_r	plane_of_elev_r	axial_rot_r	elbow_flexion_r	pro_sup_r	wrist_flex_r	wrist_dev_r	clav_prot_l	clav_elev_l	scapula_abduction_l	scapula_elevation_l	scapula_upward_rot_l	scapula_winging_l	shoulder_elv_l	plane_of_elev_l	axial_rot_l	elbow_flexion_l	pro_sup_l	wrist_flex_l	wrist_dev_l
      2.06000000	     22.88063545	     50.18930384	     -2.05215900	      0.02383640	      1.01987121	     -0.05999732	    -32.07905733	     14.16176298	    -25.75793438	      7.08417987	     45.00000000	    -18.73781957	     76.00333042	    -67.14151904	     89.71473839	     79.17056194	    -29.80452187	     16.15643051	     -3.86224247	     24.00369647	    -18.87938829	    -45.00000000	     -1.54688385	    -29.68259387	     16.27177038	     54.18727156	      1.44723342	    -27.79097992	     66.75805809	      8.11098089	     28.24934598	     -8.10224486
      2.07000000	     22.87213695	     50.47710324	     -2.42685913	      0.02392371	      1.01966005	     -0.06083090	    -32.00109429	     13.84922560	    -25.46979968	      6.84746144	     45.00000000	    -18.64704072	     73.72437697	    -66.87007050	     87.51213374	     77.82158632	    -31.16430153	     15.72216255	     -3.42645201	     24.03712916	    -19.57166874	    -45.00000000	     -1.72073867	    -31.70084571	     15.89225318	     55.57614411	      4.26248983	    -26.02939094	     65.26041834	      7.64265219	     30.07668437	     -7.59696252
      2.08000000	     22.71002103	     50.52509771	     -2.24305408	      0.02383051	      1.01918271	     -0.06119646	    -31.56788979	     14.27657432	    -25.01424023	      7.22247672	     45.00000000	    -18.46258624	     69.91796411	    -66.74583507	     84.26544669	     76.07518285	    -33.13441002	     15.31395519	     -3.25250053	     24.00760471	    -20.56418538	    -45.00000000	     -2.11258256	    -34.98877712	     15.31516803	     57.95932783	      7.22175602	    -23.85512279	     63.88519597	      7.22265162	     31.14307343	     -7.08038614
      2.09000000	     22.67607037	     50.78588376	     -2.05921659	      0.02433834	      1.01960023	     -0.06213710	    -31.35336921	     13.90538237	    -24.47085271	      6.95427614	     45.00000000	    -18.30634614	     69.64614970	    -66.37923948	     84.36650659	     74.68147764	    -33.22202477	     14.83288706	     -3.34857147	     24.11906363	    -21.35121653	    -45.00000000	     -1.48134875	    -34.97701167	     14.92954649	     57.78065369	      7.61412914	    -23.77693680	     62.69458548	      7.42328017	     31.10427295	     -6.73768561
      2.10000000	     22.27418950	     50.72303419	     -1.74929445	      0.02440730	      1.01909065	     -0.06250621	    -31.05424113	     14.35641262	    -24.23684346	      7.33408867	     45.00000000	    -18.19353469	     65.11087726	    -65.82802797	     80.72022004	     72.72484644	    -35.54666717	     14.28187491	     -2.84886372	     24.04053666	    -21.84877480	    -45.00000000	     -1.82271407	    -37.03363904	     14.61481944	     58.63587105	     10.14264696	    -21.36191895	     60.56784104	      6.86466869	     33.19729699	     -6.26783117
      2.11000000	     22.46029827	     50.84536499	     -2.25819799	      0.02484573	      1.01918701	     -0.06332139	    -30.77240516	     13.97702040	    -23.57598430	      7.06287977	     45.00000000	    -18.00281843	     63.61425416	    -65.67996670	     79.21499942	     71.21505982	    -36.34712249	     13.91071116	     -2.42741988	     24.14876821	    -22.69967708	    -45.00000000	     -1.22201687	    -37.24928021	     14.17346164	     58.73216448	     11.29273943	    -20.28646848	     58.58363492	      6.71133695	     34.23952878	     -5.98031736
      2.12000000	     22.21447099	     50.84006800	     -2.08554918	      0.02510827	      1.01906915	     -0.06397355	    -30.40755651	     14.12170366	    -23.06693207	      7.21271982	     45.00000000	    -17.83014737	     60.73914690	    -65.27553873	     77.07861496	     69.31523551	    -37.87879328	     13.39012657	     -2.05427243	     24.18652142	    -23.24428938	    -45.00000000	     -0.98177310	    -37.79567110	     13.87267928	     58.54627508	     12.63829940	    -18.87921316	     56.38477780	      6.42796937	     35.67179782	     -5.65004191
      2.13000000	     22.05424378	     50.77512204	     -1.96926693	      0.02534595	      1.01883005	     -0.06454971	    -29.92764269	     14.43660637	    -22.45754724	      7.50447626	     45.00000000	    -17.61837429	     57.50683547	    -64.90186113	     74.63306596	     67.26148243	    -39.53655814	     13.05905196	     -1.71492767	     24.23496740	    -23.86605910	    -45.00000000	     -0.67825715	    -38.33746350	     13.52446419	     58.42688114	     13.90687592	    -17.59262377	     54.08285262	      6.21917061	     36.55925052	     -5.40761886
      2.14000000	     21.80407303	     50.74337979	     -1.74032897	      0.02570526	      1.01874677	     -0.06511529	    -29.50088860	     14.64934108	    -21.87439776	      7.71154420	     45.00000000	    -17.42712850	     54.67824126	    -64.48032580	     72.70321211	     65.21073684	    -40.87210602	     12.61336647	     -1.43737904	     24.30013667	    -24.46727107	    -45.00000000	     -0.31702482	    -38.67408085	     13.18518045	     58.13298886	     14.97940204	    -16.39280913	     51.68063278	      6.07171349	     37.51623204	     -5.10236035
      2.15000000	     21.61411560	     50.70930500	     -1.57619808	      0.02606741	      1.01864560	     -0.06567699	    -29.04957954	     14.90596397	    -21.27142031	      7.95550399	     45.00000000	    -17.22958112	     51.86453284	    -64.05447035	     70.79278362	     63.09134696	    -42.18024497	     12.29989749	     -1.05281617	     24.37764556	    -25.07773558	    -45.00000000	      0.08678676	    -38.91600013	     12.83468518	     57.76816915	     16.04333311	    -15.22555296	     49.05531667	      5.88059702	     38.35638107	     -4.91451613
      2.16000000	     21.35948685	     50.65209213	     -1.35110697	      0.02642311	      1.01852028	     -0.06620323	    -28.57700279	     15.22045814	    -20.66102913	      8.24735334	     45.00000000	    -17.02990346	     48.88448727	    -63.57521842	     68.86824572	     60.87746086	    -43.48203558	     11.98881565	     -0.71734528	     24.45062123	    -25.64930499	    -45.00000000	      0.46172112	    -39.15353896	     12.49959517	     57.39629277	     17.12070545	    -14.01215328	     46.31631559	      5.73067790	     39.17954634	     -4.68479044
      2.17000000	     21.20397908	     50.49147922	     -1.28948173	      0.02684231	      1.01873111	     -0.06692611	    -28.12082475	     15.25459320	    -19.91479095	      8.31762050	     45.00000000	    -16.82664787	     46.71480442	    -62.94243950	     67.91198484	     58.71278074	    -44.30427303	     11.58123027	     -0.43326409	     24.56131605	    -26.31465683	    -45.00000000	      0.98207896	    -39.20174618	     12.10098597	     57.03062353	     17.87273536	    -12.79024561	     43.70859821	      5.62829604	     39.53701060	     -4.53735593
      2.18000000	     21.00879076	     50.47064767	     -1.11333386	      0.02717853	      1.01855221	     -0.06741842	    -27.65473320	     15.64358557	    -19.34951359	      8.66796487	     45.00000000	    -16.63940398	     43.87872164	    -62.40512432	     66.25029507	     56.42862991	    -45.48078195	     11.46204035	      0.02008624	     24.64510233	    -26.88446477	    -45.00000000	      1.38349525	    -39.36872886	     11.75238731	     56.68483051	     18.98881603	    -11.59928199	     40.64484987	      5.46823136	     40.39016815	     -4.37917109
      2.19000000	     20.61810664	     50.55201612	     -0.79540250	      0.02787379	      1.01944377	     -0.06774770	    -27.48451942	     15.36512775	    -18.90101848	      8.46490277	     45.00000000	    -16.55440911	     42.48411899	    -62.10147578	     65.82447117	     54.63887003	    -45.92110644	     11.05020438	      0.07868164	     24.79609206	    -27.66724533	    -45.00000000	      2.04957493	    -39.28799589	     11.25424261	     56.43529153	     19.26138281	    -10.36556549	     37.96794374	      5.56995170	     40.05295072	     -4.11549067
      2.20000000	     20.63447999	     50.33446910	     -0.75262279	      0.02799786	      1.01831560	     -0.06829527	    -26.74919159	     16.40772839	    -18.24573609	      9.35747461	     45.00000000	    -16.28157079	     38.62943444	    -61.17715513	     63.61460670	     51.92319624	    -47.62896480	     11.50505925	      0.79706545	     24.80763068	    -28.02424773	    -45.00000000	      2.15333257	    -39.80757166	     11.02791863	     56.25936477	     21.02866586	     -9.02808815	     34.65839607	      5.34610021	     41.28918914	     -4.09340416
      2.21000000	     20.13273959	     50.38057100	     -0.32675125	      0.02868085	      1.01932306	     -0.06836375	    -26.57971815	     16.15071178	    -17.80227891	      9.16986185	     45.00000000	    -16.20557181	     37.10997955	    -60.93561603	     63.13588223	     50.16177876	    -48.16155006	     11.12165238	      0.73936506	     24.94384109	    -28.74503768	    -45.00000000	      2.74131692	    -39.80976467	     10.55379183	     56.26472343	     21.20656894	     -7.72842721	     32.05627444	      5.52947580	     40.58599933	     -3.85659911
      2.22000000	     20.15495127	     50.13764316	     -0.17517882	      0.02876733	      1.01781717	     -0.06872399	    -25.73678747	     17.54976055	    -17.17891542	     10.35804689	     45.00000000	    -15.87894436	     32.87851977	    -59.84827933	     60.97108441	     47.25651927	    -50.44736234	     12.14557828	      1.42196730	     24.87790706	    -29.06007311	    -45.00000000	      2.59204684	    -40.93128588	     10.35660195	     56.65460071	     23.35791065	     -6.18160459	     28.79127258	      5.62912514	     41.36883710	     -3.79505574
      2.23000000	     19.70063559	     50.04559967	      0.46192198	      0.02905771	      1.01759411	     -0.06848450	    -25.16422913	     18.30049454	    -16.64576245	     11.01045515	     45.00000000	    -15.63924546	     29.49668076	    -59.28292632	     59.35716393	     44.88283034	    -52.92477917	     12.63593246	      1.49514314	     24.82923872	    -29.62293191	    -45.00000000	      2.58676479	    -42.21953330	      9.98200756	     57.63753550	     24.66494594	     -4.29363000	     25.99682176	      6.14076786	     40.91747008	     -3.78230957
      2.24000000	     19.44594757	     49.97882940	      0.52282179	      0.02970258	      1.01828666	     -0.06872074	    -25.00086017	     18.02914181	    -16.18045965	     10.80975461	     45.00000000	    -15.58803524	     28.58631201	    -58.93058185	     59.55905082	     43.42845680	    -53.31935249	     12.37047279	      1.52782258	     24.97246208	    -30.18494349	    -45.00000000	      3.13743016	    -41.97581426	      9.59559957	     57.74971467	     24.75813272	     -3.14500949	     23.73995424	      6.26861028	     40.28517156	     -3.70214130
      2.25000000	     19.37153114	     49.94653592	      0.59488341	      0.03023770	      1.01849349	     -0.06887223	    -24.79575671	     18.23983956	    -15.94924311	     10.99713813	     45.00000000	    -15.50552558	     27.25419021	    -58.30060164	     59.68779639	     41.67717321	    -54.12718091	     12.90811901	      1.86246995	     25.05785522	    -30.68733318	    -45.00000000	      3.50620415	    -42.10282903	      9.24635999	     57.87111471	     25.41106938	     -1.57940547	     21.11587367	      6.39203176	     39.49764879	     -3.66570600
      2.26000000	     19.21863259	     49.67722698	      0.98063595	      0.03026064	      1.01730532	     -0.06908549	    -24.04654684	     19.49676579	    -15.43198489	     12.07417502	     45.00000000	    -15.17074601	     23.60447714	    -56.98362681	     59.37288348	     38.48467752	    -57.51894189	     14.99082338	      2.43204448	     24.82385850	    -31.01996626	    -45.00000000	      2.98821004	    -44.28660650	      9.03799695	     59.75874168	     27.63834555	      0.22091214	     18.64472756	      7.06245797	     39.02979792	     -3.66979108
